<svg xmlns="http://www.w3.org/2000/svg" width="142.614" height="24.217"><path data-name="Caminho 3219" d="M137.458 2.718h2.678v3.726h2.478v2.451h-2.478v6.657h2.344v2.407a6.15 6.15 0 01-1.384.135c-2.433 0-3.639-1.282-3.639-3.846V2.718z" fill="#f5455c"/><path data-name="Caminho 3220" d="M132.4 8.086V6.442h2.678v11.334H132.4v-1.642c-.379 1.1-1.74 1.889-3.594 1.889a5.389 5.389 0 01-4.017-1.686 5.936 5.936 0 01-1.608-4.228 5.846 5.846 0 011.608-4.206 5.324 5.324 0 014.017-1.709c1.853.001 3.214.792 3.594 1.892zm-.8 6.5a3.316 3.316 0 001-2.473 3.406 3.406 0 00-3.431-3.467 3.221 3.221 0 00-2.389.99 3.444 3.444 0 00-.937 2.474 3.441 3.441 0 00.937 2.473 3.221 3.221 0 002.389.99 3.32 3.32 0 002.428-.987z" fill="#f5455c"/><path data-name="Caminho 3221" d="M33.28 17.775V6.443h2.656V8.13a3.468 3.468 0 013.348-1.911 4.085 4.085 0 01.8.068v2.608a5.671 5.671 0 00-1.116-.112 2.829 2.829 0 00-3.036 3.036v5.956H33.28z" fill="#f5455c"/><path data-name="Caminho 3222" d="M40.758 12.109a5.746 5.746 0 011.786-4.274 6.336 6.336 0 018.705 0 5.746 5.746 0 011.786 4.274 5.744 5.744 0 01-1.786 4.272 6.336 6.336 0 01-8.705 0 5.738 5.738 0 01-1.786-4.272zm8.612 2.542a3.507 3.507 0 001-2.541 3.418 3.418 0 00-1-2.519 3.511 3.511 0 00-4.977 0 3.494 3.494 0 00-.982 2.519 3.58 3.58 0 00.982 2.541 3.566 3.566 0 004.977 0z" fill="#f5455c"/><path data-name="Caminho 3223" d="M64.173 7.23v2.7a4.836 4.836 0 00-3.459-1.395 3.586 3.586 0 00-2.611 1.007 3.4 3.4 0 00-1.027 2.541 3.4 3.4 0 001.027 2.541 3.587 3.587 0 002.61 1.018 4.763 4.763 0 003.46-1.4v2.7a5.533 5.533 0 01-3.615 1.147 6.019 6.019 0 01-4.375-1.709 5.707 5.707 0 01-1.764-4.3 5.7 5.7 0 011.764-4.3 6.019 6.019 0 014.375-1.709 5.645 5.645 0 013.615 1.159z" fill="#f5455c"/><path data-name="Caminho 3224" d="M66.158 17.778V2.718h2.654v8.56l3.8-4.835h3.036l-4.264 5.42 4.62 5.914h-3.125l-4.067-5.24v5.241h-2.654z" fill="#f5455c"/><path data-name="Caminho 3225" d="M76.069 12.109a5.771 5.771 0 011.629-4.3 5.663 5.663 0 014.2-1.642 5.085 5.085 0 013.951 1.642 5.628 5.628 0 011.54 4.025c0 .337-.022.675-.045.967h-8.616a3.072 3.072 0 003.393 2.947 5.678 5.678 0 004.04-1.3v2.519a7.076 7.076 0 01-4.151 1.147 5.969 5.969 0 01-4.307-1.6 5.769 5.769 0 01-1.629-4.3v-.112zm8.593-1.214a2.223 2.223 0 00-.8-1.709 2.862 2.862 0 00-1.964-.72 3.375 3.375 0 00-2.142.72 2.29 2.29 0 00-.966 1.711z" fill="#f5455c"/><path data-name="Caminho 3226" d="M89.402 2.718h2.678v3.726h2.478v2.451h-2.476v6.657h2.344v2.407a6.15 6.15 0 01-1.384.135c-2.433 0-3.638-1.282-3.638-3.846V2.718z" fill="#f5455c"/><path data-name="Caminho 3227" d="M97.208 14.804a1.614 1.614 0 101.608 1.614 1.611 1.611 0 00-1.608-1.614z" fill="#f5455c"/><path data-name="Caminho 3228" d="M109.321 7.23v2.7a4.836 4.836 0 00-3.459-1.395 3.585 3.585 0 00-2.611 1.012 3.4 3.4 0 00-1.027 2.541 3.4 3.4 0 001.027 2.541 3.586 3.586 0 002.606 1.013 4.761 4.761 0 003.459-1.395v2.7a5.532 5.532 0 01-3.615 1.147 6.018 6.018 0 01-4.375-1.709 5.706 5.706 0 01-1.764-4.3 5.7 5.7 0 011.764-4.3 6.018 6.018 0 014.375-1.709 5.645 5.645 0 013.62 1.154z" fill="#f5455c"/><path data-name="Caminho 3229" d="M111.307 17.778V2.718h2.656v5.3a3.5 3.5 0 013.281-1.8c2.589 0 4.107 1.732 4.107 4.543v7.017h-2.656v-6.635c0-1.552-.826-2.519-2.254-2.519a2.45 2.45 0 00-2.478 2.631v6.523h-2.656z" fill="#f5455c"/><path data-name="Caminho 3230" d="M25.625 8.017a10.3 10.3 0 00-3.032-3.009 16.713 16.713 0 00-9.171-2.554 18.859 18.859 0 00-3.376.3 11.189 11.189 0 00-2.319-1.73A9.093 9.093 0 00.448.54a.679.679 0 00-.26 1.1C1.17 2.67 2.8 4.7 2.4 6.539a7.959 7.959 0 00-2.4 5.55 7.978 7.978 0 002.4 5.588c.4 1.843-1.226 3.87-2.208 4.9a.678.678 0 00.26 1.1 9.094 9.094 0 007.28-.482 11.191 11.191 0 002.321-1.731 18.86 18.86 0 003.376.3 16.709 16.709 0 009.171-2.553 10.286 10.286 0 003.026-3.011 7.463 7.463 0 000-8.186zM13.283 19.388a16.062 16.062 0 01-4.192-.544l-.943.917a8.646 8.646 0 01-1.741 1.3 6.782 6.782 0 01-2.462.7c.046-.084.088-.169.133-.253a6.068 6.068 0 00.765-4.734A5.843 5.843 0 012.37 12.27c0-3.93 4.886-7.117 10.913-7.117S24.2 8.339 24.2 12.27s-4.889 7.118-10.917 7.118z" fill="#f5455c"/><path data-name="Caminho 3231" d="M8.06 10.633a1.614 1.614 0 101.608 1.614 1.611 1.611 0 00-1.608-1.614z" fill="#f5455c"/><path data-name="Caminho 3232" d="M13.241 10.633a1.614 1.614 0 101.608 1.614 1.611 1.611 0 00-1.608-1.614z" fill="#f5455c"/><path data-name="Caminho 3233" d="M18.416 10.633a1.614 1.614 0 101.606 1.614 1.611 1.611 0 00-1.606-1.614z" fill="#f5455c"/></svg>